<?xml version="1.0" encoding="UTF-8" standalone="no"?>
<svg
   xmlns:dc="http://purl.org/dc/elements/1.1/"
   xmlns:cc="http://creativecommons.org/ns#"
   xmlns:rdf="http://www.w3.org/1999/02/22-rdf-syntax-ns#"
   xmlns:svg="http://www.w3.org/2000/svg"
   xmlns="http://www.w3.org/2000/svg"
   xmlns:sodipodi="http://sodipodi.sourceforge.net/DTD/sodipodi-0.dtd"
   xmlns:inkscape="http://www.inkscape.org/namespaces/inkscape"
   inkscape:version="1.0 (4035a4fb49, 2020-05-01)"
   sodipodi:docname="RJ45 Breakout_bb.svg"
   id="svg364"
   viewBox="0 0 46.16801 56.836992"
   height="0.78940266in"
   width="0.64122218in"
   y="0in"
   x="0in"
   version="1.2">
  <metadata
     id="metadata370">
    <rdf:RDF>
      <cc:Work
         rdf:about="">
        <dc:format>image/svg+xml</dc:format>
        <dc:type
           rdf:resource="http://purl.org/dc/dcmitype/StillImage" />
        <dc:title></dc:title>
      </cc:Work>
    </rdf:RDF>
  </metadata>
  <defs
     id="defs368" />
  <sodipodi:namedview
     inkscape:current-layer="icon"
     inkscape:window-maximized="1"
     inkscape:window-y="-8"
     inkscape:window-x="-8"
     inkscape:cy="37.887935"
     inkscape:cx="30.778657"
     inkscape:zoom="6.5554691"
     fit-margin-bottom="0"
     fit-margin-right="0"
     fit-margin-left="0"
     fit-margin-top="0"
     showgrid="false"
     id="namedview366"
     inkscape:window-height="1057"
     inkscape:window-width="1920"
     inkscape:pageshadow="2"
     inkscape:pageopacity="0"
     guidetolerance="10"
     gridtolerance="10"
     objecttolerance="10"
     borderopacity="1"
     bordercolor="#666666"
     pagecolor="#ffffff" />
  <g
     transform="translate(-7.2,-7.58405)"
     id="g362"
     partID="855927100">
    <g
       id="breadboard">
      <g
         id="icon">
        <g
           id="g238"
           transform="translate(7.2,7.58405)">
          <g
             id="g236">
            <g
               id="g234">
              <rect
                 id="rect4"
                 y="6.5"
                 x="1.196"
                 width="43.775002"
                 fill="#1a1a1a"
                 height="32.671001" />
              <g
                 id="g160">
                <g
                   id="g158"
                   enable-background="new    ">
                  <g
                     id="g156">
                    <polyline
                       id="polyline6"
                       points="2.353,56.153,2.353,53.26,12.046,53.26,12.046,56.153,2.353,56.153"
                       fill="#b3b3b3" />
                    <polyline
                       id="polyline8"
                       points="2.353,53.26,2.353,39.287,43.816,39.287,43.816,44.912,43.816,45.253,43.825,45.253,43.825,47.445,43.816,47.445,43.816,47.792,43.816,53.26,34.124,53.26,43.816,53.26,43.816,56.153,34.124,56.153,28.461,56.153,28.461,56.503,17.707,56.503,17.707,56.153,12.046,56.153,12.046,53.26,2.353,53.26"
                       fill="#b3b3b3" />
                    <polyline
                       id="polyline10"
                       points="44.967,38.751,1.192,38.751,1.192,56.837,44.967,56.837,44.967,56.832,1.192,56.832,1.192,56.607,44.967,56.607,44.527,56.607,44.527,50.803,44.967,50.803,44.967,38.751"
                       fill="#b3b3b3" />
                    <polyline
                       id="polyline12"
                       points="42.879,47.445,42.879,52.904,33.429,52.904,33.429,53.619,33.403,53.619,33.403,54.24,28.461,54.24,28.461,55.901,28.461,56.153,34.124,56.153,34.124,53.26,43.816,53.26,43.816,47.792,42.879,47.792,42.879,47.445"
                       fill="#333333" />
                    <polyline
                       id="polyline14"
                       points="43.816,39.287,2.353,39.287,2.353,53.26,12.046,53.26,12.046,56.153,17.707,56.153,17.707,54.24,12.766,54.24,12.766,53.619,12.739,53.619,12.739,52.904,3.298,52.904,3.298,47.792,2.353,47.792,2.353,44.912,3.298,44.912,3.298,39.794,9.49903,39.794,10.75,39.794,11.136,39.794,11.38,39.794,11.569,39.794,11.947,39.794,12.145,39.794,12.387,39.794,12.739,39.794,13.99,39.794,14.377,39.794,14.62,39.794,14.809,39.794,15.187,39.794,15.385,39.794,15.628,39.794,15.979,39.794,17.23,39.794,17.617,39.794,17.86,39.794,18.058,39.794,18.427,39.794,18.616,39.794,18.868,39.794,19.219,39.794,20.469,39.794,20.857,39.794,21.1,39.794,21.298,39.794,21.667,39.794,21.856,39.794,22.108,39.794,22.459,39.794,23.709,39.794,24.096,39.794,24.348,39.794,24.538,39.794,24.907,39.794,25.104,39.794,25.347,39.794,25.7,39.794,26.95,39.794,27.336,39.794,27.588,39.794,27.778,39.794,28.146,39.794,28.344,39.794,28.588,39.794,28.938,39.794,30.19,39.794,30.577,39.794,30.82,39.794,31.017,39.794,31.395,39.794,31.584,39.794,31.829,39.794,32.178,39.794,33.429,39.794,33.817,39.794,34.059,39.794,34.258,39.794,34.635,39.794,34.825,39.794,35.068,39.794,35.418,39.794,36.67,39.794,42.879,39.794,42.879,45.253,42.879,44.912,43.816,44.912,43.816,39.287"
                       fill="#333333" />
                    <polyline
                       id="polyline16"
                       points="12.766,54.236,12.766,53.619,33.393,53.619,33.393,54.236,12.766,54.236" />
                    <polyline
                       id="polyline18"
                       points="9.49903,52.904,9.49903,48.984,10.75,48.984,10.75,52.904,9.49903,52.904" />
                    <polyline
                       id="polyline20"
                       points="15.979,53.619,15.979,48.984,17.23,48.984,17.23,53.619,15.979,53.619" />
                    <polyline
                       id="polyline22"
                       points="19.219,53.619,19.219,48.984,20.469,48.984,20.469,53.619,19.219,53.619" />
                    <polyline
                       id="polyline24"
                       points="22.459,53.619,22.459,48.984,23.709,48.984,23.709,53.619,22.459,53.619" />
                    <polyline
                       id="polyline26"
                       points="25.7,53.619,25.7,48.984,26.95,48.984,26.95,53.619,25.7,53.619" />
                    <polyline
                       id="polyline28"
                       points="28.938,53.619,28.938,48.984,30.19,48.984,30.19,53.619,28.938,53.619" />
                    <polyline
                       id="polyline30"
                       points="35.418,52.904,35.418,48.984,36.67,48.984,36.67,52.904,35.418,52.904" />
                    <polyline
                       id="polyline32"
                       points="42.879,39.794,36.67,39.794,36.67,48.646,35.418,48.646,35.418,39.794,35.068,39.794,35.068,47.257,33.817,47.257,33.817,39.794,33.429,39.794,33.429,48.646,32.178,48.646,32.178,39.794,31.829,39.794,31.829,47.257,30.577,47.257,30.577,39.794,30.19,39.794,30.19,48.646,28.938,48.646,28.938,39.794,28.588,39.794,28.588,47.257,27.336,47.257,27.336,39.794,26.95,39.794,26.95,48.646,25.7,48.646,25.7,39.794,25.347,39.794,25.347,47.257,24.096,47.257,24.096,39.794,23.709,39.794,23.709,48.646,22.459,48.646,22.459,39.794,22.108,39.794,22.108,47.257,20.857,47.257,20.857,39.794,20.469,39.794,20.469,48.646,19.219,48.646,19.219,39.794,18.868,39.794,18.868,47.257,17.617,47.257,17.617,39.794,17.23,39.794,17.23,48.646,15.979,48.646,15.979,39.794,15.628,39.794,15.628,47.257,14.377,47.257,14.377,39.794,13.99,39.794,13.99,48.646,12.739,48.646,12.739,39.794,12.387,39.794,12.387,47.257,11.136,47.257,11.136,39.794,10.75,39.794,10.75,48.646,9.49903,48.646,9.49903,39.794,3.298,39.794,3.298,44.912,3.298,45.253,3.478,45.253,3.72,45.253,3.847,45.253,3.991,45.253,4.234,45.253,4.234,47.445,3.298,47.445,3.298,47.792,3.298,52.904,12.739,52.904,12.739,48.984,13.99,48.984,13.99,53.619,12.766,53.619,12.766,54.24,17.707,54.24,17.707,56.153,17.707,55.901,28.461,55.901,28.461,54.24,33.403,54.24,33.403,53.619,32.178,53.619,32.178,48.984,33.429,48.984,33.429,52.904,42.879,52.904,42.879,47.445,41.934,47.445,41.934,45.253,42.176,45.253,42.322,45.253,42.458,45.253,42.691,45.253,42.879,45.253,42.879,39.794" />
                    <polyline
                       id="polyline34"
                       points="33.393,53.619,12.766,53.619,12.766,54.236,33.393,54.236,33.393,53.619"
                       fill="#1a1a1a" />
                    <polyline
                       id="polyline36"
                       points="28.461,55.901,17.707,55.901,17.707,56.153,17.707,56.503,28.461,56.503,28.461,56.153,28.461,55.901"
                       fill="#1a1a1a" />
                    <polyline
                       id="polyline38"
                       points="43.816,47.445,42.879,47.445,42.879,47.792,43.816,47.792,43.816,47.445" />
                    <polyline
                       id="polyline40"
                       points="43.816,44.912,42.879,44.912,42.879,45.253,42.943,45.253,43.816,45.253,43.816,44.912" />
                    <polyline
                       id="polyline42"
                       points="3.298,44.912,2.353,44.912,2.353,47.792,3.298,47.792,3.298,47.445,2.353,47.445,2.353,45.253,3.226,45.253,3.298,45.253,3.298,44.912" />
                    <polyline
                       id="polyline44"
                       points="43.825,45.253,43.816,45.253,42.943,45.253,42.943,47.445,41.934,47.445,41.934,45.253,41.934,47.445,42.879,47.445,43.816,47.445,43.825,47.445,43.825,45.253"
                       fill="#cccccc" />
                    <polyline
                       id="polyline46"
                       points="42.943,45.253,42.879,45.253,42.691,45.253,42.691,47.445,41.934,47.445,41.934,45.253,41.934,47.445,42.943,47.445,42.943,45.253"
                       fill="#b3b3b3" />
                    <polyline
                       id="polyline48"
                       points="42.691,45.253,42.458,45.253,42.458,47.445,41.934,47.445,41.934,45.253,41.934,47.445,42.691,47.445,42.691,45.253"
                       fill="#999999" />
                    <polyline
                       id="polyline50"
                       points="42.458,45.253,42.322,45.253,42.322,47.445,42.176,47.445,42.176,45.253,41.934,45.253,41.934,47.445,42.458,47.445,42.458,45.253"
                       fill="#808080" />
                    <polyline
                       id="polyline52"
                       points="42.322,45.253,42.176,45.253,42.176,47.445,42.322,47.445,42.322,45.253"
                       fill="#cccccc" />
                    <polyline
                       id="polyline54"
                       points="3.226,45.253,2.353,45.253,2.353,47.445,3.298,47.445,4.234,47.445,3.226,47.445,3.226,45.253"
                       fill="#cccccc" />
                    <polyline
                       id="polyline56"
                       points="3.478,45.253,3.298,45.253,3.226,45.253,3.226,47.445,4.234,47.445,3.478,47.445,3.478,45.253"
                       fill="#b3b3b3" />
                    <polyline
                       id="polyline58"
                       points="3.72,45.253,3.478,45.253,3.478,47.445,4.234,47.445,3.72,47.445,3.72,45.253"
                       fill="#999999" />
                    <polyline
                       id="polyline60"
                       points="4.234,45.253,3.991,45.253,3.991,47.445,3.847,47.445,3.847,45.253,3.72,45.253,3.72,47.445,4.234,47.445,4.234,45.253"
                       fill="#808080" />
                    <polyline
                       id="polyline62"
                       points="3.991,45.253,3.847,45.253,3.847,47.445,3.991,47.445,3.991,45.253"
                       fill="#cccccc" />
                    <polyline
                       id="polyline64"
                       points="36.67,48.984,35.418,48.984,35.418,52.904,36.67,52.904,36.67,48.984"
                       fill="#0f0f0f" />
                    <polyline
                       id="polyline66"
                       points="33.429,52.904,33.403,52.904,33.403,53.619,33.429,53.619,33.429,52.904"
                       fill="#252525" />
                    <polyline
                       id="polyline68"
                       points="33.429,48.984,32.178,48.984,32.178,53.619,33.403,53.619,33.403,52.904,33.429,52.904,33.429,48.984"
                       fill="#0f0f0f" />
                    <polyline
                       id="polyline70"
                       points="30.19,48.984,28.938,48.984,28.938,53.619,30.19,53.619,30.19,48.984"
                       fill="#0f0f0f" />
                    <polyline
                       id="polyline72"
                       points="26.95,48.984,25.7,48.984,25.7,53.619,26.95,53.619,26.95,48.984"
                       fill="#0f0f0f" />
                    <polyline
                       id="polyline74"
                       points="23.709,48.984,22.459,48.984,22.459,53.619,23.709,53.619,23.709,48.984"
                       fill="#0f0f0f" />
                    <polyline
                       id="polyline76"
                       points="20.469,48.984,19.219,48.984,19.219,53.619,20.469,53.619,20.469,48.984"
                       fill="#0f0f0f" />
                    <polyline
                       id="polyline78"
                       points="17.23,48.984,15.979,48.984,15.979,53.619,17.23,53.619,17.23,48.984"
                       fill="#0f0f0f" />
                    <polyline
                       id="polyline80"
                       points="12.766,52.904,12.739,52.904,12.739,53.619,12.766,53.619,12.766,52.904"
                       fill="#252525" />
                    <polyline
                       id="polyline82"
                       points="13.99,48.984,12.739,48.984,12.739,52.904,12.766,52.904,12.766,53.619,13.99,53.619,13.99,48.984"
                       fill="#0f0f0f" />
                    <polyline
                       id="polyline84"
                       points="10.75,48.984,9.49903,48.984,9.49903,52.904,10.75,52.904,10.75,48.984"
                       fill="#0f0f0f" />
                    <polyline
                       id="polyline86"
                       points="36.67,39.794,35.418,39.794,35.418,48.646,36.67,48.646,36.67,39.794"
                       fill="#0d0d0d" />
                    <polyline
                       id="polyline88"
                       points="33.429,39.794,32.178,39.794,32.178,48.646,33.429,48.646,33.429,39.794"
                       fill="#0d0d0d" />
                    <polyline
                       id="polyline90"
                       points="30.19,39.794,28.938,39.794,28.938,48.646,30.19,48.646,30.19,39.794"
                       fill="#0d0d0d" />
                    <polyline
                       id="polyline92"
                       points="26.95,39.794,25.7,39.794,25.7,48.646,26.95,48.646,26.95,39.794"
                       fill="#0d0d0d" />
                    <polyline
                       id="polyline94"
                       points="23.709,39.794,22.459,39.794,22.459,48.646,23.709,48.646,23.709,39.794"
                       fill="#0d0d0d" />
                    <polyline
                       id="polyline96"
                       points="20.469,39.794,19.219,39.794,19.219,48.646,20.469,48.646,20.469,39.794"
                       fill="#0d0d0d" />
                    <polyline
                       id="polyline98"
                       points="17.23,39.794,15.979,39.794,15.979,48.646,17.23,48.646,17.23,39.794"
                       fill="#0d0d0d" />
                    <polyline
                       id="polyline100"
                       points="13.99,39.794,12.739,39.794,12.739,48.646,13.99,48.646,13.99,39.794"
                       fill="#0d0d0d" />
                    <polyline
                       id="polyline102"
                       points="10.75,39.794,9.49903,39.794,9.49903,48.646,10.75,48.646,10.75,39.794"
                       fill="#0d0d0d" />
                    <polyline
                       id="polyline104"
                       points="35.068,39.794,34.825,39.794,34.825,47.257,34.059,47.257,34.059,39.794,33.817,39.794,33.817,47.257,35.068,47.257,35.068,39.794"
                       fill="#6f4813" />
                    <polyline
                       id="polyline106"
                       points="31.829,39.794,31.584,39.794,31.584,47.257,30.82,47.257,30.82,39.794,30.577,39.794,30.577,47.257,31.829,47.257,31.829,39.794"
                       fill="#6f4813" />
                    <polyline
                       id="polyline108"
                       points="28.588,39.794,28.344,39.794,28.344,47.257,27.588,47.257,27.588,39.794,27.336,39.794,27.336,47.257,28.588,47.257,28.588,39.794"
                       fill="#6f4813" />
                    <polyline
                       id="polyline110"
                       points="25.347,39.794,25.104,39.794,25.104,47.257,24.348,47.257,24.348,39.794,24.096,39.794,24.096,47.257,25.347,47.257,25.347,39.794"
                       fill="#6f4813" />
                    <polyline
                       id="polyline112"
                       points="22.108,39.794,21.856,39.794,21.856,47.257,21.1,47.257,21.1,39.794,20.857,39.794,20.857,47.257,22.108,47.257,22.108,39.794"
                       fill="#6f4813" />
                    <polyline
                       id="polyline114"
                       points="18.868,39.794,18.616,39.794,18.616,47.257,17.86,47.257,17.86,39.794,17.617,39.794,17.617,47.257,18.868,47.257,18.868,39.794"
                       fill="#6f4813" />
                    <polyline
                       id="polyline116"
                       points="15.628,39.794,15.385,39.794,15.385,47.257,14.62,47.257,14.62,39.794,14.377,39.794,14.377,47.257,15.628,47.257,15.628,39.794"
                       fill="#6f4813" />
                    <polyline
                       id="polyline118"
                       points="12.387,39.794,12.145,39.794,12.145,47.257,11.38,47.257,11.38,39.794,11.136,39.794,11.136,47.257,12.387,47.257,12.387,39.794"
                       fill="#6f4813" />
                    <polyline
                       id="polyline120"
                       points="34.825,39.794,34.635,39.794,34.635,47.257,34.258,47.257,34.258,39.794,34.059,39.794,34.059,47.257,34.825,47.257,34.825,39.794"
                       fill="#78592e" />
                    <polyline
                       id="polyline122"
                       points="31.584,39.794,31.395,39.794,31.395,47.257,31.017,47.257,31.017,39.794,30.82,39.794,30.82,47.257,31.584,47.257,31.584,39.794"
                       fill="#78592e" />
                    <polyline
                       id="polyline124"
                       points="28.344,39.794,28.146,39.794,28.146,47.257,27.778,47.257,27.778,39.794,27.588,39.794,27.588,47.257,28.344,47.257,28.344,39.794"
                       fill="#78592e" />
                    <polyline
                       id="polyline126"
                       points="25.104,39.794,24.907,39.794,24.907,47.257,24.538,47.257,24.538,39.794,24.348,39.794,24.348,47.257,25.104,47.257,25.104,39.794"
                       fill="#78592e" />
                    <polyline
                       id="polyline128"
                       points="21.856,39.794,21.667,39.794,21.667,47.257,21.298,47.257,21.298,39.794,21.1,39.794,21.1,47.257,21.856,47.257,21.856,39.794"
                       fill="#78592e" />
                    <polyline
                       id="polyline130"
                       points="18.616,39.794,18.427,39.794,18.427,47.257,18.058,47.257,18.058,39.794,17.86,39.794,17.86,47.257,18.616,47.257,18.616,39.794"
                       fill="#78592e" />
                    <polyline
                       id="polyline132"
                       points="15.385,39.794,15.187,39.794,15.187,47.257,14.809,47.257,14.809,39.794,14.62,39.794,14.62,47.257,15.385,47.257,15.385,39.794"
                       fill="#78592e" />
                    <polyline
                       id="polyline134"
                       points="12.145,39.794,11.947,39.794,11.947,47.257,11.569,47.257,11.569,39.794,11.38,39.794,11.38,47.257,12.145,47.257,12.145,39.794"
                       fill="#78592e" />
                    <polyline
                       id="polyline136"
                       points="34.635,39.794,34.258,39.794,34.258,47.257,34.635,47.257,34.635,39.794"
                       fill="#81694a" />
                    <polyline
                       id="polyline138"
                       points="31.395,39.794,31.017,39.794,31.017,47.257,31.395,47.257,31.395,39.794"
                       fill="#81694a" />
                    <polyline
                       id="polyline140"
                       points="28.146,39.794,27.778,39.794,27.778,47.257,28.146,47.257,28.146,39.794"
                       fill="#81694a" />
                    <polyline
                       id="polyline142"
                       points="24.907,39.794,24.538,39.794,24.538,47.257,24.907,47.257,24.907,39.794"
                       fill="#81694a" />
                    <polyline
                       id="polyline144"
                       points="21.667,39.794,21.298,39.794,21.298,47.257,21.667,47.257,21.667,39.794"
                       fill="#81694a" />
                    <polyline
                       id="polyline146"
                       points="18.427,39.794,18.058,39.794,18.058,47.257,18.427,47.257,18.427,39.794"
                       fill="#81694a" />
                    <polyline
                       id="polyline148"
                       points="15.187,39.794,14.809,39.794,14.809,47.257,15.187,47.257,15.187,39.794"
                       fill="#81694a" />
                    <polyline
                       id="polyline150"
                       points="11.947,39.794,11.569,39.794,11.569,47.257,11.947,47.257,11.947,39.794"
                       fill="#81694a" />
                    <polyline
                       id="polyline152"
                       points="44.967,56.607,1.192,56.607,1.192,56.832,44.967,56.832,44.967,56.607"
                       fill="#999999" />
                    <polyline
                       id="polyline154"
                       points="44.967,50.803,44.527,50.803,44.527,56.607,44.967,56.607,44.967,50.803"
                       fill="#999999" />
                  </g>
                </g>
              </g>
              <g
                 id="g188">
                <path
                   id="path162"
                   d="m 12.031,29.421 c 0,-0.396 0.324,-0.719 0.724003,-0.719 h 2.649 c 0.396,0 0.724003,0.324 0.724003,0.719 v 9.44899 c 0,0.396 -0.324,0.719 -0.724003,0.719 h -2.649 c -0.396,0 -0.724003,-0.323 -0.724003,-0.719 z"
                   fill="#b3b3b3" />
                <path
                   id="path164"
                   d="m 30.038,29.421 c 0,-0.396 0.324,-0.719 0.724997,-0.719 h 2.648 c 0.396,0 0.724997,0.324 0.724997,0.719 v 9.44899 c 0,0.396 -0.324,0.719 -0.724997,0.719 h -2.648 c -0.396,0 -0.724997,-0.323 -0.724997,-0.719 z"
                   fill="#b3b3b3" />
                <path
                   id="path166"
                   d="m 12.031,29.421 c 0,-0.396 0.324,-0.719 0.724003,-0.719 h 2.649 c 0.396,0 0.724003,0.324 0.724003,0.719 v 1.168 H 12.03 Z"
                   fill="#cccccc" />
                <path
                   id="path168"
                   d="m 30.038,29.421 c 0,-0.396 0.324,-0.719 0.724997,-0.719 h 2.648 c 0.396,0 0.724997,0.324 0.724997,0.719 v 1.168 h -4.098 z"
                   fill="#cccccc" />
                <rect
                   id="rect170"
                   y="30.403"
                   x="12.031"
                   width="4.098"
                   fill="#999999"
                   height="4.0630002" />
                <rect
                   id="rect172"
                   y="30.403"
                   x="30.038"
                   width="4.098"
                   fill="#999999"
                   height="4.0630002" />
                <rect
                   id="rect174"
                   y="32.964001"
                   x="12.031"
                   width="4.098"
                   fill="#b3b3b3"
                   height="3.875" />
                <rect
                   id="rect176"
                   y="32.964001"
                   x="30.038"
                   width="4.098"
                   fill="#b3b3b3"
                   height="3.875" />
                <rect
                   id="rect178"
                   y="34.745998"
                   x="12.031"
                   width="4.098"
                   fill="#cccccc"
                   height="1.469" />
                <rect
                   id="rect180"
                   y="34.745998"
                   x="30.038"
                   width="4.098"
                   fill="#cccccc"
                   height="1.469" />
                <rect
                   id="rect182"
                   y="30.247999"
                   x="12.031"
                   width="4.098"
                   fill="#e6e6e6"
                   height="0.31099999" />
                <rect
                   id="rect184"
                   y="29.701"
                   x="12.034"
                   width="4.098"
                   fill="#f2f2f2"
                   height="0.48899999" />
                <path
                   id="path186"
                   d="m 44.973,28.323 v -27.601999 -0.72 H 44.251999 L 1.918,0.001 H 1.196 v 0.72 27.602 h 0.288 v 10.429 h 0.436 8.62697 0.72 l 0.047,-0.717 0.336,-5.104 0.336,-5.104 c 0.026,-0.395 0.372,-0.718 0.770998,-0.718 h 2.666 c 0.396,0 0.738,0.323 0.768002,0.718 l 0.336,5.104 0.336,5.104 v 0 l 0.048,0.717 h 0.724003 10.918 0.721001 l 0.049,-0.717 v 0 l 0.346,-5.104 0.348,-5.105 c 0.023,-0.395 0.373,-0.717 0.768002,-0.717 h 2.629 c 0.396,0 0.740002,0.322 0.770998,0.717 l 0.346,5.105 0.344,5.104 v 0 l 0.049,0.717 h 0.718 8.62697 H 44.7 v -10.43 z"
                   fill="#cccccc" />
              </g>
              <rect
                 y="0"
                 id="rect190"
                 opacity="0.37"
                 enable-background="new    "
                 x="1.196"
                 width="3.4749999"
                 fill="#e6e6e6"
                 height="38.750999" />
              <rect
                 y="0"
                 id="rect192"
                 opacity="0.37"
                 enable-background="new    "
                 x="41.501999"
                 width="3.4719999"
                 fill="#808080"
                 height="38.750999" />
              <path
                 id="path194"
                 opacity="0.45"
                 d="m 14.078,38.751 h -2.047 c 0,0 0,-8.85298 0,-9.32998 0,-0.479 0.433,-0.721001 0.724003,-0.721001 0.291003,0 1.323,0 1.323,0 z"
                 enable-background="new    "
                 fill="#e6e6e6" />
              <path
                 id="path196"
                 opacity="0.45"
                 d="m 32.084,38.751 h -2.043 c 0,0 0,-8.85298 0,-9.32998 0,-0.479 0.428,-0.721001 0.719,-0.721001 0.291,0 1.324,0 1.324,0 z"
                 enable-background="new    "
                 fill="#e6e6e6" />
              <path
                 id="path198"
                 opacity="0.45"
                 d="m 32.088,38.751 h 2.048 c 0,0 0,-8.85298 0,-9.32998 0,-0.479 -0.435,-0.721001 -0.725998,-0.721001 -0.290998,0 -1.322,0 -1.322,0 z"
                 enable-background="new    "
                 fill="#b3b3b3" />
              <path
                 id="path200"
                 opacity="0.45"
                 d="m 14.078,38.751 h 2.051 c 0,0 0,-8.85298 0,-9.32998 0,-0.479 -0.433,-0.721001 -0.724003,-0.721001 -0.291003,0 -1.327,0 -1.327,0 z"
                 enable-background="new    "
                 fill="#b3b3b3" />
              <rect
                 id="rect202"
                 opacity="0.76"
                 enable-background="new    "
                 y="34.964001"
                 x="12.031"
                 width="4.098"
                 fill="#e6e6e6"
                 height="0.81300199" />
              <rect
                 id="rect204"
                 opacity="0.76"
                 enable-background="new    "
                 y="34.964001"
                 x="30.038"
                 width="4.098"
                 fill="#e6e6e6"
                 height="0.81300199" />
              <rect
                 id="rect206"
                 opacity="0.76"
                 enable-background="new    "
                 y="30.247999"
                 x="30.038"
                 width="4.098"
                 fill="#e6e6e6"
                 height="0.31099999" />
              <rect
                 id="rect208"
                 opacity="0.76"
                 enable-background="new    "
                 y="29.806"
                 x="30.042"
                 width="4.0949998"
                 fill="#f2f2f2"
                 height="0.41" />
              <g
                 id="g220">
                <g
                   id="g214">
                  <rect
                     id="rect210"
                     y="41.612"
                     x="0.011"
                     width="0.38600001"
                     fill="#999999"
                     height="1.699" />
                  <rect
                     id="rect212"
                     y="41.612"
                     x="0.011"
                     width="0.38600001"
                     fill="#999999"
                     height="1.699" />
                </g>
                <path
                   id="path216"
                   d="m 1.192,48.053 c 0,0 -0.658,-2.991 -0.783,-4.741 H 0.011 c 0.125,1.75 0.783,4.741 0.783,4.741 0,0 0.254,1.497 0.397,1.903 10e-4,-0.969 10e-4,-1.903 10e-4,-1.903 z"
                   fill="#999999" />
                <path
                   id="path218"
                   d="m 1.192,46.365 c 0,0 -0.669,-3.003 -0.794002,-4.753 H 0 c 0.125,1.75 0.794002,4.753 0.794002,4.753 0,0 0.254,1.497 0.397,1.903 C 1.192,47.3 1.192,46.365 1.192,46.365 Z"
                   fill="#cccccc" />
              </g>
              <g
                 id="g232">
                <g
                   id="g226">
                  <rect
                     id="rect222"
                     y="41.612"
                     x="45.771"
                     width="0.38600001"
                     fill="#999999"
                     height="1.699" />
                  <rect
                     id="rect224"
                     y="41.612"
                     x="45.771"
                     width="0.38600001"
                     fill="#999999"
                     height="1.699" />
                </g>
                <path
                   id="path228"
                   d="m 44.976,48.053 c 0,0 0.657,-2.991 0.781999,-4.741 h 0.397 c -0.125,1.75 -0.781999,4.741 -0.781999,4.741 0,0 -0.254,1.497 -0.397,1.903 0,-0.969 0,-1.903 0,-1.903 z"
                   fill="#999999" />
                <path
                   id="path230"
                   d="m 44.976,46.365 c 0,0 0.67,-3.003 0.795002,-4.753 h 0.397 c -0.125,1.75 -0.795002,4.753 -0.795002,4.753 0,0 -0.254,1.497 -0.397,1.903 0,-0.968 0,-1.903 0,-1.903 z"
                   fill="#cccccc" />
              </g>
            </g>
          </g>
        </g>
      </g>
    </g>
  </g>
</svg>
